<?xml version="1.0" encoding="utf-8"?>
<svg viewBox="109.082 90.415 198 248" xmlns="http://www.w3.org/2000/svg" xmlns:xlink="http://www.w3.org/1999/xlink">
  <defs>
    <path id="path-0" d="M 137.797 316.843 C 138.261 311.454 138.726 309.324 138.726 306.621 C 138.726 303.214 138.726 300.736 138.726 298.258 C 138.726 294.076 138.726 290.824 138.726 287.571 C 138.726 284.997 138.534 280.795 139.655 279.673 C 140.12 277.186 141.509 272.708 142.443 271.774 C 144.285 268.555 146.147 266.224 147.554 263.411 C 149.321 260.341 152.43 258.306 153.594 255.977 C 155.988 253.583 159.064 251.616 161.493 250.401 C 165.316 248.489 168.445 247.622 171.25 246.22 C 175.066 244.312 178.553 243.962 181.472 242.503 C 184.562 242.038 188.341 240.23 190.3 239.25 C 193.814 237.261 197.111 236.103 200.057 234.139 C 203.089 231.572 205.335 230.255 207.491 228.099 C 209.991 225.599 211.029 223.167 213.066 221.13 C 215.583 218.149 217.494 216.702 219.571 214.625 C 222.033 212.697 227.397 207.337 228.399 205.333 C 230.074 201.982 232.437 195.719 233.974 194.182 C 234.439 188.936 236.298 184.715 236.298 180.243 C 236.298 173.273 236.298 168.162 236.298 163.052 C 236.298 157.941 236.298 155.153 236.298 152.365 C 235.32 150.923 235.833 148.173 235.833 146.79 L 235.833 146.325 C 235.833 145.086 235.833 143.847 235.833 142.608" style="fill: none;"/>
  </defs>
  <g id="layer1" transform="matrix(1, 0, 0, 1, 108.082016, 89.414955)">
    <path style="fill-opacity: 1; fill-rule: evenodd; stroke: rgb(0, 0, 0); stroke-width: 2; stroke-linecap: butt; stroke-linejoin: miter; stroke-opacity: 1; stroke-miterlimit: 4; stroke-dasharray: none; fill: rgb(41, 171, 26);" d="M 199,10 C 199,5 195,1 190,1 L 10,1 C 5,1 1,5 1,10 L 1,240 C 1,245 5,249 10,249 L 190,249 C 195,249 199,245 199,240 L 199,10 z " id="path3229"/>
  </g>
  <text style="fill: rgb(255, 255, 255); font-family: Arial, sans-serif; font-size: 28px; white-space: pre;" transform="matrix(1, 0, 0, 1, 30.665314, -9.757145)"><textPath startOffset="0" xlink:href="#path-0">I RISH  PO K  E R</textPath></text>
</svg>